<?xml version="1.0" encoding="UTF-8"?><svg xmlns="http://www.w3.org/2000/svg" height="581.6" viewBox="250 100 350 325" width="807.9"><path d="M566.2,268.2c-29.2-21.9-75-42.5-125.6-56.7c-46.1-12.9-91-19.2-126.6-17.6l-0.2-4.1 c36-1.6,81.4,4.7,127.9,17.7c51.1,14.3,97.4,35.2,127,57.4L566.2,268.2z" fill="#ccc"/><path d="M563.1,285c0,19.4-4,38.5-11.9,56.2c-0.7,1.5-1.3,2.9-2.1,4.4c-33.5,68.6-116.2,97-184.8,63.6 c-47.5-23.2-77.6-71.4-77.6-124.2c0-3.2,0.1-6.4,0.3-9.5c0.1-1.6,0.2-3.2,0.4-4.8c7.9-75.9,75.8-131,151.7-123.1 C509.6,154.9,563.1,214.2,563.1,285L563.1,285z" fill="#6c63ff"/><path d="M551.2,341.2c-0.7,1.5-1.3,2.9-2.1,4.4c-4,0.4-8.3,0.8-12.8,1c-3.7,0.2-7.5,0.2-11.4,0.2 c-33.9,0-74.8-6.3-116.5-18c-46.5-13-88.6-31.3-118.4-51.3c-1-0.7-2-1.4-3-2.1c0.1-1.6,0.2-3.2,0.4-4.8c1.6,1.1,3.2,2.3,4.9,3.4 c29.5,19.8,71.2,37.9,117.2,50.8c41.4,11.6,81.8,17.8,115.3,17.8c3.8,0,7.6-0.1,11.2-0.2C541.5,342.2,546.5,341.8,551.2,341.2z" opacity=".1"/><path d="M525,343.5c-33.9,0-74.8-6.3-116.5-18c-46.5-13-88.6-31.3-118.4-51.3c-30.5-20.5-44.8-40.7-40.3-56.8 c4.5-16.2,27.2-26,64-27.6l0.2,4.1c-17.1,0.8-31.1,3.3-41.5,7.6c-10.4,4.2-16.7,10-18.6,17c-2,7.1,0.4,15.2,7.1,24.2 c6.7,9,17.3,18.5,31.5,28.1c29.5,19.8,71.2,37.9,117.2,50.8c41.4,11.6,81.8,17.8,115.3,17.8c3.8,0,7.6-0.1,11.2-0.2 c17.1-0.8,31.1-3.3,41.5-7.6c10.4-4.2,16.7-10,18.6-17c3.6-12.7-7.2-29.1-30.2-46.4l2.5-3.3c11.9,8.9,20.6,17.6,26.1,26 c5.8,9,7.7,17.3,5.6,24.8c-4.5,16.2-27.2,26-64,27.6C532.7,343.4,528.9,343.5,525,343.5z" fill="#ccc"/><circle cx="428.6" cy="120.3" fill="#f2f2f2" r="1.6"/><circle cx="218.5" cy="187.9" fill="#ccc" r="2.7"/><circle cx="212.7" cy="294.5" fill="#ccc" r="5.4"/><circle cx="535.7" cy="129.8" fill="#ccc" r="3.6"/><circle cx="662.9" cy="278.7" fill="#ccc" r="5.8"/><circle cx="617.4" cy="185.7" fill="#ccc" r="2.5"/><circle cx="314.1" cy="153.6" fill="#ccc" r="3.9"/><circle cx="608.7" cy="266.9" fill="#ccc" r="2.5"/><circle cx="225.4" cy="370.5" fill="#ccc" r="3.1"/><circle cx="288.2" cy="413.8" fill="#ccc" r="3.4"/><path d="M386.1 74.7L379.5 74.7 379.5 68.1 375.9 68.1 375.9 74.7 369.2 74.7 369.2 78.3 375.9 78.3 375.9 84.9 379.5 84.9 379.5 78.3 386.1 78.3z" fill="#ccc"/><path d="M540.2 434.3L536.1 434.3 536.1 430.1 533.8 430.1 533.8 434.3 529.7 434.3 529.7 436.5 533.8 436.5 533.8 440.7 536.1 440.7 536.1 436.5 540.2 436.5z" fill="#ccc"/><path d="M636.5 412.9L633.4 412.9 633.4 409.8 631.8 409.8 631.8 412.9 628.6 412.9 628.6 414.6 631.8 414.6 631.8 417.7 633.4 417.7 633.4 414.6 636.5 414.6z" fill="#ccc"/><circle cx="427" cy="176.8" opacity=".1" r="11.6"/><circle cx="337.8" cy="261.8" opacity=".1" r="11.6"/><circle cx="466.1" cy="378.4" opacity=".1" r="11.6"/><circle cx="427" cy="279.7" opacity=".1" r="11.6"/><circle cx="343.6" cy="343.6" opacity=".1" r="11.6"/><circle cx="489.3" cy="217.4" opacity=".1" r="11.6"/><circle cx="527.8" cy="296.1" opacity=".1" r="11.6"/><circle cx="427" cy="229" fill="#fff" r="15.3"/><path d="M427,206.9c-12,0-21.6,9.7-21.6,21.6s21.6,51.2,21.6,51.2s21.6-39.2,21.6-51.2S439,206.9,427,206.9z M427,239.1 c-5.5,0-10-4.5-10-10s4.5-10,10-10c5.5,0,10,4.5,10,10S432.6,239.1,427,239.1L427,239.1L427,239.1z" fill="#ccc"/><circle cx="343.6" cy="294.5" fill="#fff" r="15.3"/><path d="M343.6,272.3c-12,0-21.6,9.7-21.6,21.6c0,12,21.6,51.2,21.6,51.2s21.6-39.2,21.6-51.2S355.6,272.3,343.6,272.3z M343.6,304.5c-5.5,0-10-4.5-10-10c0-5.5,4.5-10,10-10c5.5,0,10,4.5,10,10C353.7,300,349.2,304.5,343.6,304.5L343.6,304.5 L343.6,304.5z" fill="#ccc"/><circle cx="527.8" cy="247" fill="#fff" r="15.3"/><path d="M527.8,224.8c-12,0-21.6,9.7-21.6,21.6c0,0,0,0,0,0c0,12,21.6,51.2,21.6,51.2s21.6-39.2,21.6-51.2 C549.5,234.5,539.8,224.8,527.8,224.8L527.8,224.8z M527.8,257c-5.5,0-10-4.5-10-10s4.5-10,10-10c5.5,0,10,4.5,10,10 C537.9,252.5,533.4,257,527.8,257L527.8,257z" fill="#ccc"/><circle cx="427" cy="126.1" fill="#fff" r="15.3"/><path d="M427,104c-12,0-21.6,9.7-21.6,21.6c0,12,21.6,51.2,21.6,51.2s21.6-39.2,21.6-51.2C448.7,113.6,439,104,427,104z M427,136.2c-5.5,0-10-4.5-10-10s4.5-10,10-10c5.5,0,10,4.5,10,10S432.6,136.2,427,136.2L427,136.2L427,136.2z" fill="#ccc"/><circle cx="466.1" cy="329.3" fill="#fff" r="15.3"/><path d="M466.1,307.2c-12,0-21.6,9.7-21.6,21.6c0,12,21.6,51.2,21.6,51.2s21.6-39.2,21.6-51.2S478,307.2,466.1,307.2 L466.1,307.2z M466.1,339.4c-5.5,0-10-4.5-10-10c0-5.5,4.5-10,10-10c5.5,0,10,4.5,10,10C476.1,334.9,471.6,339.4,466.1,339.4 L466.1,339.4z" fill="#3f3d56"/><circle cx="337.8" cy="211.6" fill="#fff" r="15.3"/><path d="M337.8,189.5c-12,0-21.6,9.7-21.6,21.6s21.6,51.2,21.6,51.2s21.6-39.2,21.6-51.2S349.8,189.5,337.8,189.5z M337.8,221.7c-5.5,0-10-4.5-10-10s4.5-10,10-10c5.5,0,10,4.5,10,10S343.4,221.7,337.8,221.7C337.8,221.7,337.8,221.7,337.8,221.7z" fill="#3f3d56"/><circle cx="489.3" cy="168.9" fill="#fff" r="15.3"/><path d="M489.3,146.7c-12,0-21.6,9.7-21.6,21.6c0,12,21.6,51.2,21.6,51.2s21.6-39.2,21.6-51.2 C510.9,156.4,501.2,146.7,489.3,146.7z M489.3,178.9c-5.5,0-10-4.5-10-10s4.5-10,10-10c5.5,0,10,4.5,10,10S494.8,178.9,489.3,178.9 L489.3,178.9L489.3,178.9L489.3,178.9z" fill="#3f3d56"/></svg>